<svg width="371" height="98" viewBox="0 0 371 98" fill="none" xmlns="http://www.w3.org/2000/svg">
<path d="M10.16 22.24C10.16 19.72 10.12 17.96 10.6 17.04C11.04 16.24 11.96 16.2 13.48 16.04C13.72 16 13.84 15.96 13.84 15.52C13.84 15.04 13.76 14.96 13.48 14.96C11.68 15 9.64 15.12 7.76 15.12C6 15.12 3.88 15 1.96 14.96C1.72 14.96 1.64 15.04 1.64 15.48C1.64 15.96 1.72 16.04 1.92 16.04C3.6 16.2 4.6 16.24 5.04 17.04C5.44 17.92 5.44 18.4 5.44 22.24V36.76C5.44 39.48 5.48 41.2 5 42.12C4.52 42.96 3.64 42.96 2.12 43.12C1.88 43.16 1.84 43.24 1.84 43.64C1.84 44.04 1.92 44.12 2.16 44.12C3.92 44.08 6 44 7.76 44C9.6 44 11.68 44.08 13.64 44.12C13.96 44.12 14.04 44.04 14.04 43.64C14.04 43.24 13.96 43.16 13.68 43.12C12.04 42.96 10.96 42.92 10.56 42.12C10.12 41.32 10.16 40.76 10.16 36.76V22.24ZM18.0659 28.08C18.7459 28.04 19.0659 28.24 19.3059 28.92C19.5859 29.64 19.5859 30.8 19.5859 32.28V38.2C19.5859 40.52 19.6259 41.8 19.3059 42.44C18.9859 43.08 18.3459 43.08 17.1859 43.2C16.9859 43.24 16.9059 43.28 16.9059 43.68C16.9059 44.04 16.9459 44.12 17.1859 44.12C18.7059 44.08 20.3459 44 21.7859 44C23.1059 44 24.6659 44.08 26.0659 44.12C26.3459 44.12 26.4259 44.08 26.4259 43.68C26.4259 43.28 26.3459 43.24 26.0659 43.2C24.8259 43.08 24.1859 43.08 23.8659 42.44C23.5859 41.84 23.6259 40.6 23.6259 38.2V32.8C23.6259 31.52 23.7459 30.8 24.4659 29.6C25.2259 28.32 26.6259 27.32 28.0659 27.32C29.6259 27.32 30.4659 28.12 30.9859 29.32C31.5459 30.56 31.4659 31.6 31.4659 32.76V38.2C31.4659 40.52 31.4659 41.8 31.1459 42.44C30.8259 43.08 30.1859 43.12 29.1059 43.2C28.8659 43.2 28.7859 43.28 28.7859 43.68C28.7859 44.04 28.8259 44.12 29.1059 44.12C30.6259 44.08 32.2659 44 33.6659 44C35.0259 44 36.5459 44.08 38.0259 44.12C38.3059 44.12 38.3459 44.04 38.3459 43.68C38.3459 43.32 38.2659 43.24 38.0259 43.2C36.8659 43.08 36.2259 43.04 35.9459 42.44C35.6659 41.84 35.6259 40.6 35.6259 38.2V35.44C35.6259 34.48 35.6659 32.48 35.6659 31C35.6659 25.92 31.0259 25.28 29.8259 25.28C27.2659 25.28 25.0259 26.68 23.6259 29.08C23.6259 28.04 23.6259 26.8 23.7059 25.68C23.7059 25.52 23.4659 25.36 23.2259 25.36C21.4259 26 18.5459 26.8 16.9059 27.12C16.4659 27.2 16.3859 27.28 16.4259 27.72C16.4659 28.16 16.5859 28.2 16.9859 28.16L18.0659 28.08ZM42.3453 27.6L42.2653 33.32C42.2253 35.24 42.1853 37.04 42.1853 38.96C42.1853 41.24 42.6653 42.48 43.5453 43.44C44.5453 44.4 45.8653 44.8 47.7453 44.8C49.9853 44.8 51.3853 43.92 52.5853 42.72C52.9053 42.4 52.7453 42.2 52.5053 41.96C52.2653 41.72 52.0653 41.68 51.8653 41.84C51.0653 42.52 50.2253 42.92 49.3053 42.92C48.8253 42.92 47.9053 42.8 47.1453 41.84C46.5853 41.08 46.3853 39.96 46.3853 37.72L46.4653 27.48C48.1853 27.48 50.0653 27.56 51.5453 27.64C51.7453 27.64 51.9053 27.52 51.9453 27.36L52.3853 26.2C52.4253 26.04 52.3853 25.92 52.2253 25.92C50.5453 26 48.3453 26.04 46.5453 26.04C46.5453 24.8 46.6253 23.28 46.6653 21.96C46.6653 21.68 46.5853 21.56 46.1053 21.56C45.6653 21.56 45.5453 21.64 45.4253 21.96C45.0253 22.88 44.1453 24.12 43.3453 24.8C42.4653 25.64 41.0653 26.36 39.8253 26.52C39.3853 26.56 39.3453 26.68 39.3453 27.08C39.3453 27.56 39.4253 27.64 39.7853 27.64L42.3453 27.6ZM59.2878 33.52C62.8478 33.44 66.8878 33.48 70.9278 33.6C71.1678 33.6 71.3278 33.64 71.5278 33.4C71.7278 33.12 71.7278 33.04 71.7278 32.72C71.6078 29.92 69.2078 25.28 63.9278 25.28C58.4878 25.28 54.6478 29.76 54.6478 35.16C54.6478 40.68 58.3678 44.76 63.8878 44.76C67.2078 44.76 69.4478 43.64 71.2878 40.8C71.4078 40.6 71.4878 40.44 71.4878 40.36C71.4878 40.24 71.3278 40.08 71.1678 39.96C71.0478 39.88 70.9278 39.8 70.8078 39.8C70.6878 39.8 70.5278 39.84 70.4078 40C68.9278 42 67.4478 42.88 64.8478 42.88C62.3678 42.88 59.1278 40.24 59.1278 34.96C59.1278 34.28 59.2078 33.88 59.2878 33.52ZM59.4878 32.08C60.0878 28.8 61.7678 26.48 63.9278 26.48C66.2478 26.48 67.2078 29.08 67.3278 31.32C67.3278 31.68 67.2878 31.92 66.9678 31.96C64.1678 32.16 62.2878 32.16 59.4878 32.08ZM75.2525 28.12C75.9325 28.08 76.4125 28.28 76.6125 29C76.8525 29.76 76.9325 30.84 76.9325 32.28V38.2C76.9325 40.52 76.8925 41.76 76.5325 42.44C76.2525 43.08 75.6125 43.08 74.4125 43.2C74.1725 43.24 74.0925 43.28 74.0925 43.72C74.0925 44.08 74.1725 44.12 74.4125 44.12C75.8925 44.08 77.7325 44 79.0925 44C80.4125 44 82.0925 44.08 83.6125 44.12C83.8125 44.12 83.8925 44.08 83.8925 43.72C83.8925 43.28 83.8525 43.2 83.6125 43.2C82.2125 43.08 81.5725 43.08 81.2525 42.44C80.9725 41.88 80.9725 40.6 80.9725 38.2V33.32C80.9725 31.8 81.3325 30.72 82.0925 29.8C82.8925 28.8 83.4525 28.6 83.9325 28.6C84.7325 28.6 85.2925 29.48 86.1725 29.48C87.1325 29.48 88.3325 28.08 88.3325 26.48C88.3325 25.76 87.4925 25.24 86.1325 25.24C83.8525 25.24 82.1725 27.48 80.9725 29.64C80.9725 28.04 81.0525 26.84 81.0925 25.72C81.0925 25.52 80.8525 25.36 80.5725 25.36C78.6925 26.04 75.7325 26.84 74.1725 27.16C73.7325 27.24 73.6525 27.32 73.6925 27.76C73.7325 28.2 73.8125 28.24 74.2525 28.2L75.2525 28.12ZM90.9566 28.08C91.6366 28.04 91.9566 28.24 92.1966 28.92C92.4766 29.64 92.4766 30.8 92.4766 32.28V38.2C92.4766 40.52 92.5166 41.8 92.1966 42.44C91.8766 43.08 91.2366 43.08 90.0766 43.2C89.8766 43.24 89.7966 43.28 89.7966 43.68C89.7966 44.04 89.8366 44.12 90.0766 44.12C91.5966 44.08 93.2366 44 94.6766 44C95.9966 44 97.5566 44.08 98.9566 44.12C99.2366 44.12 99.3166 44.08 99.3166 43.68C99.3166 43.28 99.2366 43.24 98.9566 43.2C97.7166 43.08 97.0766 43.08 96.7566 42.44C96.4766 41.84 96.5166 40.6 96.5166 38.2V32.8C96.5166 31.52 96.6366 30.8 97.3566 29.6C98.1166 28.32 99.5166 27.32 100.957 27.32C102.517 27.32 103.357 28.12 103.877 29.32C104.437 30.56 104.357 31.6 104.357 32.76V38.2C104.357 40.52 104.357 41.8 104.037 42.44C103.717 43.08 103.077 43.12 101.997 43.2C101.757 43.2 101.677 43.28 101.677 43.68C101.677 44.04 101.717 44.12 101.997 44.12C103.517 44.08 105.157 44 106.557 44C107.917 44 109.437 44.08 110.917 44.12C111.197 44.12 111.237 44.04 111.237 43.68C111.237 43.32 111.157 43.24 110.917 43.2C109.757 43.08 109.117 43.04 108.837 42.44C108.557 41.84 108.517 40.6 108.517 38.2V35.44C108.517 34.48 108.557 32.48 108.557 31C108.557 25.92 103.917 25.28 102.717 25.28C100.157 25.28 97.9166 26.68 96.5166 29.08C96.5166 28.04 96.5166 26.8 96.5966 25.68C96.5966 25.52 96.3566 25.36 96.1166 25.36C94.3166 26 91.4366 26.8 89.7966 27.12C89.3566 27.2 89.2766 27.28 89.3166 27.72C89.3566 28.16 89.4766 28.2 89.8766 28.16L90.9566 28.08ZM128.076 31.24C128.116 28.12 128.036 25.28 122.156 25.28C117.236 25.28 114.156 28.2 114.156 30.08C114.156 30.88 114.476 31.36 115.716 31.36C117.796 31.36 118.796 30.52 118.796 29.44C118.796 28.44 118.956 27.68 119.516 27.2C120.196 26.52 120.956 26.4 121.596 26.4C123.236 26.4 123.996 27.64 123.996 30.64V31.76C123.996 32.32 123.596 32.92 123.076 33.32C122.476 33.8 121.716 34.24 119.956 34.76C117.476 35.52 116.036 35.88 114.836 36.96C113.996 37.88 113.476 38.76 113.476 40.52C113.476 42.32 114.676 44.76 118.596 44.76C121.356 44.76 122.756 43.84 124.196 42.4C124.716 43.72 125.876 44.56 127.596 44.56C129.156 44.56 130.316 44.16 130.996 43.64C131.276 43.44 131.276 43.32 131.116 43.04C130.956 42.76 130.756 42.76 130.596 42.84C130.156 43.08 129.916 43.12 129.436 43.12C128.516 43.12 127.956 42.16 127.996 39.6L128.076 31.24ZM123.956 39.72C123.956 41.6 122.476 43.2 120.396 43.2C119.316 43.2 117.876 42.04 117.876 39.92C117.876 37.88 118.676 36.56 120.796 35.72C123.036 34.88 123.596 34.56 123.996 33.96L123.956 39.72ZM134.689 27.6L134.609 33.32C134.569 35.24 134.529 37.04 134.529 38.96C134.529 41.24 135.009 42.48 135.889 43.44C136.889 44.4 138.209 44.8 140.089 44.8C142.329 44.8 143.729 43.92 144.929 42.72C145.249 42.4 145.089 42.2 144.849 41.96C144.609 41.72 144.409 41.68 144.209 41.84C143.409 42.52 142.569 42.92 141.649 42.92C141.169 42.92 140.249 42.8 139.489 41.84C138.929 41.08 138.729 39.96 138.729 37.72L138.809 27.48C140.529 27.48 142.409 27.56 143.889 27.64C144.089 27.64 144.249 27.52 144.289 27.36L144.729 26.2C144.769 26.04 144.729 25.92 144.569 25.92C142.889 26 140.689 26.04 138.889 26.04C138.889 24.8 138.969 23.28 139.009 21.96C139.009 21.68 138.929 21.56 138.449 21.56C138.009 21.56 137.889 21.64 137.769 21.96C137.369 22.88 136.489 24.12 135.689 24.8C134.809 25.64 133.409 26.36 132.169 26.52C131.729 26.56 131.689 26.68 131.689 27.08C131.689 27.56 131.769 27.64 132.129 27.64L134.689 27.6ZM149.392 38.16C149.392 40.48 149.472 41.76 149.072 42.44C148.752 43 148.112 43.04 146.952 43.12C146.672 43.12 146.592 43.28 146.592 43.64C146.592 44.04 146.672 44.12 146.992 44.12C148.352 44.08 150.192 44 151.512 44C152.872 44 154.512 44.08 155.952 44.12C156.192 44.12 156.232 44.04 156.232 43.64C156.232 43.28 156.192 43.16 155.952 43.12C154.672 43.04 153.992 43.04 153.672 42.44C153.392 41.8 153.392 40.56 153.392 38.16V32.92C153.392 31 153.432 28.76 153.552 25.84C153.552 25.6 153.352 25.44 153.072 25.44C151.192 26.08 148.152 26.92 146.592 27.28C146.152 27.36 146.112 27.4 146.152 27.88C146.192 28.36 146.272 28.36 146.672 28.32L147.712 28.24C148.592 28.16 148.992 28.4 149.192 29.04C149.352 29.8 149.392 30.92 149.392 32.44V38.16ZM151.152 14.28C149.752 14.28 148.392 15.56 148.392 16.96C148.392 18.36 149.752 19.68 151.152 19.68C152.432 19.68 153.792 18.36 153.792 16.96C153.792 15.56 152.432 14.28 151.152 14.28ZM167.913 25.28C162.393 25.28 158.593 29.76 158.593 35.12C158.593 40.56 162.393 44.76 167.913 44.76C173.553 44.76 177.273 40.4 177.273 35.04C177.273 29.52 173.353 25.28 167.913 25.28ZM167.913 26.48C171.113 26.48 172.593 29.96 172.593 35.04C172.593 39.76 170.993 43.56 167.913 43.56C164.753 43.56 163.273 40.04 163.273 35.04C163.273 30.24 164.833 26.48 167.913 26.48ZM181.386 28.08C182.066 28.04 182.386 28.24 182.626 28.92C182.906 29.64 182.906 30.8 182.906 32.28V38.2C182.906 40.52 182.946 41.8 182.626 42.44C182.306 43.08 181.666 43.08 180.506 43.2C180.306 43.24 180.226 43.28 180.226 43.68C180.226 44.04 180.266 44.12 180.506 44.12C182.026 44.08 183.666 44 185.106 44C186.426 44 187.986 44.08 189.386 44.12C189.666 44.12 189.746 44.08 189.746 43.68C189.746 43.28 189.666 43.24 189.386 43.2C188.146 43.08 187.506 43.08 187.186 42.44C186.906 41.84 186.946 40.6 186.946 38.2V32.8C186.946 31.52 187.066 30.8 187.786 29.6C188.546 28.32 189.946 27.32 191.386 27.32C192.946 27.32 193.786 28.12 194.306 29.32C194.866 30.56 194.786 31.6 194.786 32.76V38.2C194.786 40.52 194.786 41.8 194.466 42.44C194.146 43.08 193.506 43.12 192.426 43.2C192.186 43.2 192.106 43.28 192.106 43.68C192.106 44.04 192.146 44.12 192.426 44.12C193.946 44.08 195.586 44 196.986 44C198.346 44 199.866 44.08 201.346 44.12C201.626 44.12 201.666 44.04 201.666 43.68C201.666 43.32 201.586 43.24 201.346 43.2C200.186 43.08 199.546 43.04 199.266 42.44C198.986 41.84 198.946 40.6 198.946 38.2V35.44C198.946 34.48 198.986 32.48 198.986 31C198.986 25.92 194.346 25.28 193.146 25.28C190.586 25.28 188.346 26.68 186.946 29.08C186.946 28.04 186.946 26.8 187.026 25.68C187.026 25.52 186.786 25.36 186.546 25.36C184.746 26 181.866 26.8 180.226 27.12C179.786 27.2 179.706 27.28 179.746 27.72C179.786 28.16 179.906 28.2 180.306 28.16L181.386 28.08ZM218.506 31.24C218.546 28.12 218.466 25.28 212.586 25.28C207.666 25.28 204.586 28.2 204.586 30.08C204.586 30.88 204.906 31.36 206.146 31.36C208.226 31.36 209.226 30.52 209.226 29.44C209.226 28.44 209.386 27.68 209.946 27.2C210.626 26.52 211.386 26.4 212.026 26.4C213.666 26.4 214.426 27.64 214.426 30.64V31.76C214.426 32.32 214.026 32.92 213.506 33.32C212.906 33.8 212.146 34.24 210.386 34.76C207.906 35.52 206.466 35.88 205.266 36.96C204.426 37.88 203.906 38.76 203.906 40.52C203.906 42.32 205.106 44.76 209.026 44.76C211.786 44.76 213.186 43.84 214.626 42.4C215.146 43.72 216.306 44.56 218.026 44.56C219.586 44.56 220.746 44.16 221.426 43.64C221.706 43.44 221.706 43.32 221.546 43.04C221.386 42.76 221.186 42.76 221.026 42.84C220.586 43.08 220.346 43.12 219.866 43.12C218.946 43.12 218.386 42.16 218.426 39.6L218.506 31.24ZM214.386 39.72C214.386 41.6 212.906 43.2 210.826 43.2C209.746 43.2 208.306 42.04 208.306 39.92C208.306 37.88 209.106 36.56 211.226 35.72C213.466 34.88 214.026 34.56 214.426 33.96L214.386 39.72ZM225.199 38.12C225.199 40.48 225.199 41.72 224.879 42.4C224.559 43.04 224.079 43.08 222.839 43.2C222.519 43.24 222.439 43.32 222.439 43.68C222.439 44.04 222.519 44.12 222.879 44.12C224.359 44.04 226.039 44 227.439 44C228.759 44 230.319 44.04 231.799 44.12C232.039 44.12 232.119 44.08 232.119 43.68C232.119 43.32 232.079 43.24 231.839 43.2C230.559 43.08 229.919 43.04 229.599 42.4C229.279 41.8 229.319 40.56 229.319 38.12V23.32C229.319 19.4 229.439 16.48 229.519 13.48C229.519 13.28 229.319 13.2 229.039 13.2C227.079 13.84 224.079 14.64 222.439 14.96C222.079 15.04 221.999 15.08 222.039 15.56C222.079 16 222.159 16.04 222.519 16L223.599 15.92C224.239 15.88 224.759 16.12 224.919 16.84C225.079 17.52 225.199 18.68 225.199 20.12V38.12ZM256.14 30.84C257.1 30.96 258.18 31 259.1 31C268.94 31 271.58 27.04 271.58 22.64C271.58 18.08 268.74 14.92 260.34 14.92C257.78 14.92 255.3 15.08 253.78 15.08C251.9 15.08 249.62 15.04 247.82 14.96C247.54 14.96 247.46 15.04 247.46 15.48C247.46 15.96 247.54 16 247.82 16.04C249.38 16.2 250.58 16.24 251.02 17.04C251.42 17.92 251.42 18.4 251.42 22.24V36.72C251.42 39.4 251.42 41.16 250.98 42.04C250.5 42.92 249.7 42.96 248.18 43.08C247.94 43.08 247.82 43.16 247.82 43.6C247.82 44.08 247.9 44.12 248.14 44.12C249.82 44.04 252.02 44 253.86 44C255.7 44 257.82 44.04 259.7 44.12C260.02 44.12 260.06 44 260.06 43.6C260.06 43.2 260.02 43.12 259.74 43.08C258.02 42.92 256.94 42.88 256.5 42.04C256.1 41.32 256.14 40.72 256.14 36.72V30.84ZM256.14 22.24C256.14 20.04 256.1 17.96 256.66 17.12C257.18 16.36 258.62 16.28 259.54 16.28C263.9 16.28 266.46 18.52 266.46 22.84C266.46 26.6 264.46 29.6 258.7 29.6C257.78 29.6 256.94 29.52 256.14 29.36V22.24ZM280.844 23.32C280.844 19.44 280.924 16.52 281.044 13.56C281.044 13.44 280.804 13.24 280.644 13.24C278.724 13.88 275.724 14.68 274.044 15C273.644 15.08 273.604 15.12 273.644 15.56C273.684 16.04 273.724 16.08 274.124 16.04L275.244 15.96C275.924 15.92 276.444 16.16 276.564 16.92C276.684 17.64 276.724 18.72 276.724 20.16V38.24C276.724 40.52 276.724 41.76 276.404 42.44C276.124 43.08 275.524 43.08 274.284 43.2C274.044 43.24 273.964 43.32 273.964 43.64C273.964 44.04 274.044 44.12 274.284 44.12C275.844 44.08 277.604 44 279.044 44C280.364 44 281.804 44.08 283.284 44.12C283.604 44.12 283.684 44.04 283.684 43.64C283.684 43.28 283.604 43.24 283.284 43.2C281.964 43.08 281.324 43 281.084 42.44C280.804 41.8 280.844 40.6 280.844 38.24V32.84C280.844 31.52 281.044 30.8 281.684 29.64C282.444 28.32 283.764 27.36 285.244 27.36C286.804 27.36 287.764 28.2 288.284 29.4C288.724 30.68 288.644 31.6 288.644 32.8V38.24C288.644 40.52 288.724 41.76 288.364 42.44C288.084 43.08 287.444 43.08 286.284 43.2C286.004 43.24 285.924 43.28 285.924 43.68C285.924 44.08 286.004 44.12 286.324 44.12C287.804 44.08 289.324 44 290.804 44C292.124 44 293.724 44.08 295.244 44.12C295.524 44.12 295.604 44.08 295.604 43.68C295.604 43.32 295.524 43.24 295.284 43.2C294.084 43.08 293.324 43.08 293.084 42.44C292.764 41.8 292.804 40.6 292.804 38.24V35.52C292.804 34.48 292.884 33.2 292.884 31C292.884 25.84 288.324 25.32 286.884 25.32C284.364 25.32 282.244 26.68 280.844 29.04V23.32ZM307.054 25.28C301.534 25.28 297.734 29.76 297.734 35.12C297.734 40.56 301.534 44.76 307.054 44.76C312.694 44.76 316.414 40.4 316.414 35.04C316.414 29.52 312.494 25.28 307.054 25.28ZM307.054 26.48C310.254 26.48 311.734 29.96 311.734 35.04C311.734 39.76 310.134 43.56 307.054 43.56C303.894 43.56 302.414 40.04 302.414 35.04C302.414 30.24 303.974 26.48 307.054 26.48ZM321.447 27.6L321.367 33.32C321.327 35.24 321.287 37.04 321.287 38.96C321.287 41.24 321.767 42.48 322.647 43.44C323.647 44.4 324.967 44.8 326.847 44.8C329.087 44.8 330.487 43.92 331.687 42.72C332.007 42.4 331.847 42.2 331.607 41.96C331.367 41.72 331.167 41.68 330.967 41.84C330.167 42.52 329.327 42.92 328.407 42.92C327.927 42.92 327.007 42.8 326.247 41.84C325.687 41.08 325.487 39.96 325.487 37.72L325.567 27.48C327.287 27.48 329.167 27.56 330.647 27.64C330.847 27.64 331.007 27.52 331.047 27.36L331.487 26.2C331.527 26.04 331.487 25.92 331.327 25.92C329.647 26 327.447 26.04 325.647 26.04C325.647 24.8 325.727 23.28 325.767 21.96C325.767 21.68 325.687 21.56 325.207 21.56C324.767 21.56 324.647 21.64 324.527 21.96C324.127 22.88 323.247 24.12 322.447 24.8C321.567 25.64 320.167 26.36 318.927 26.52C318.487 26.56 318.447 26.68 318.447 27.08C318.447 27.56 318.527 27.64 318.887 27.64L321.447 27.6ZM343.069 25.28C337.549 25.28 333.749 29.76 333.749 35.12C333.749 40.56 337.549 44.76 343.069 44.76C348.709 44.76 352.429 40.4 352.429 35.04C352.429 29.52 348.509 25.28 343.069 25.28ZM343.069 26.48C346.269 26.48 347.749 29.96 347.749 35.04C347.749 39.76 346.149 43.56 343.069 43.56C339.909 43.56 338.429 40.04 338.429 35.04C338.429 30.24 339.989 26.48 343.069 26.48ZM362.103 36.44C364.423 37.56 365.783 38.28 365.783 40C365.783 42.08 364.663 43.56 362.303 43.56C360.223 43.56 358.023 41.72 356.702 39.12C356.583 38.84 356.543 38.84 356.143 38.88C355.783 38.92 355.743 38.96 355.743 39.24C355.903 40.52 356.263 42.36 356.623 43.6C358.263 44.28 360.063 44.72 362.303 44.72C367.263 44.72 369.343 41.68 369.343 38.92C369.343 35.36 367.343 34.16 363.863 32.64L362.463 32.04C360.343 31.16 359.463 30.32 359.463 29.2C359.463 27.56 360.343 26.36 362.583 26.36C364.503 26.36 366.183 28.2 367.263 30.4C367.383 30.6 367.463 30.76 367.863 30.68C368.223 30.64 368.303 30.56 368.303 30.32C368.143 29 368.023 27.08 367.943 25.68C366.903 25.8 366.103 25.8 365.303 25.64C364.583 25.48 363.423 25.24 362.423 25.24C357.983 25.24 356.103 27.8 356.103 30.04C356.103 33.48 357.823 34.44 360.743 35.8L362.103 36.44Z" fill="white"/>
<path d="M135.954 69.988C137.326 70.688 137.998 71.276 137.998 72.41C137.998 73.488 137.228 74.384 135.898 74.384C134.764 74.384 133.7 73.432 133.126 72.004C133.098 71.934 133.056 71.892 132.902 71.92C132.776 71.948 132.762 72.018 132.762 72.088C132.86 72.774 133.014 73.586 133.224 74.342C134.008 74.622 134.904 74.832 135.744 74.832C138.194 74.832 139.258 73.488 139.258 71.864C139.258 70.226 138.292 69.526 136.654 68.756L135.94 68.42C134.708 67.832 134.372 67.216 134.372 66.53C134.372 65.536 135.044 64.794 136.122 64.794C137.172 64.794 138.04 65.592 138.502 66.894C138.516 66.964 138.544 67.006 138.67 66.992C138.81 66.964 138.838 66.922 138.838 66.852C138.782 66.124 138.698 65.312 138.684 64.612C138.278 64.682 137.746 64.654 137.326 64.542C136.948 64.416 136.528 64.346 136.094 64.346C134.274 64.346 133.126 65.494 133.126 66.838C133.126 68.252 133.896 68.938 135.296 69.652L135.954 69.988ZM146.941 74.258C146.717 74.244 146.493 74.244 146.395 74.02C146.297 73.796 146.297 73.53 146.297 72.634V70.758C146.297 70.128 146.297 69.33 146.339 68.364C146.339 68.294 146.283 68.224 146.185 68.224C145.667 68.364 144.827 68.532 144.267 68.602C144.127 68.63 144.113 68.644 144.113 68.798C144.127 68.952 144.155 68.98 144.295 68.966L144.659 68.938C144.883 68.924 145.023 69.036 145.093 69.26C145.177 69.526 145.177 69.862 145.177 70.366V72.284C145.177 72.718 145.149 72.984 144.883 73.362C144.589 73.796 144.127 74.146 143.539 74.146C143.007 74.146 142.587 73.88 142.405 73.446C142.237 73.11 142.237 72.676 142.237 72.186V70.758C142.237 70.128 142.237 69.316 142.279 68.364C142.279 68.294 142.209 68.224 142.125 68.224C141.551 68.364 140.767 68.518 140.193 68.602C140.039 68.63 140.025 68.644 140.025 68.798C140.039 68.952 140.081 68.98 140.221 68.966L140.557 68.938C140.781 68.924 140.921 69.036 141.005 69.26C141.089 69.498 141.089 69.862 141.089 70.366V71.43C141.089 71.962 141.075 72.382 141.075 72.9C141.075 74.65 142.573 74.832 143.063 74.832C143.959 74.832 144.701 74.384 145.177 73.572C145.177 73.95 145.163 74.286 145.149 74.692C145.149 74.762 145.233 74.832 145.303 74.832C145.807 74.72 146.731 74.622 147.193 74.594C147.291 74.594 147.319 74.566 147.319 74.44C147.319 74.314 147.291 74.286 147.193 74.272L146.941 74.258ZM148.519 69.148C148.785 69.12 148.925 69.204 149.009 69.442C149.107 69.694 149.107 70.086 149.107 70.59V72.592C149.107 73.39 149.135 73.81 148.995 74.034C148.883 74.258 148.631 74.258 148.267 74.3C148.169 74.314 148.141 74.342 148.141 74.454C148.141 74.58 148.169 74.608 148.267 74.608C148.729 74.594 149.247 74.566 149.695 74.566C150.129 74.566 150.675 74.594 151.109 74.608C151.193 74.608 151.221 74.58 151.221 74.454C151.221 74.342 151.193 74.314 151.109 74.3C150.759 74.258 150.423 74.244 150.325 74.034C150.227 73.824 150.241 73.418 150.241 72.592V70.758C150.241 70.324 150.269 70.086 150.535 69.68C150.829 69.232 151.207 68.882 151.823 68.882C152.397 68.882 152.733 69.162 152.929 69.596C153.111 70.002 153.083 70.352 153.083 70.744V72.592C153.083 73.39 153.083 73.81 152.971 74.034C152.859 74.258 152.579 74.258 152.229 74.3C152.131 74.3 152.103 74.328 152.103 74.454C152.103 74.566 152.117 74.608 152.229 74.608C152.691 74.594 153.237 74.566 153.699 74.566C154.091 74.566 154.637 74.594 155.099 74.608C155.197 74.608 155.211 74.566 155.211 74.454C155.211 74.328 155.197 74.314 155.113 74.3C154.721 74.258 154.413 74.244 154.287 74.034C154.189 73.824 154.189 73.418 154.189 72.592V70.758C154.189 70.324 154.217 70.072 154.497 69.68C154.777 69.232 155.197 68.882 155.813 68.882C156.401 68.882 156.723 69.176 156.891 69.596C157.073 70.002 157.045 70.352 157.045 70.744V72.592C157.045 73.39 157.059 73.81 156.933 74.034C156.807 74.258 156.555 74.258 156.191 74.3C156.093 74.3 156.065 74.328 156.065 74.454C156.065 74.58 156.093 74.608 156.191 74.608C156.695 74.594 157.227 74.566 157.675 74.566C158.109 74.566 158.655 74.594 159.075 74.608C159.173 74.608 159.187 74.566 159.187 74.454C159.187 74.328 159.159 74.314 159.075 74.3C158.739 74.258 158.389 74.244 158.277 74.034C158.179 73.838 158.193 73.418 158.193 72.592V71.682C158.193 71.332 158.207 70.646 158.207 70.142C158.207 68.378 156.723 68.182 156.289 68.182C155.351 68.182 154.665 68.686 154.105 69.568C153.839 68.546 153.013 68.182 152.271 68.182C151.459 68.182 150.745 68.658 150.241 69.498C150.241 69.134 150.255 68.728 150.269 68.35C150.269 68.28 150.199 68.224 150.115 68.224C149.499 68.448 148.673 68.7 148.169 68.812C148.029 68.854 148.001 68.868 148.001 68.994C148.015 69.204 148.057 69.19 148.197 69.176L148.519 69.148ZM160.372 69.148C160.638 69.12 160.778 69.204 160.862 69.442C160.96 69.694 160.96 70.086 160.96 70.59V72.592C160.96 73.39 160.988 73.81 160.848 74.034C160.736 74.258 160.484 74.258 160.12 74.3C160.022 74.314 159.994 74.342 159.994 74.454C159.994 74.58 160.022 74.608 160.12 74.608C160.582 74.594 161.1 74.566 161.548 74.566C161.982 74.566 162.528 74.594 162.962 74.608C163.046 74.608 163.074 74.58 163.074 74.454C163.074 74.342 163.046 74.314 162.962 74.3C162.612 74.258 162.276 74.244 162.178 74.034C162.08 73.824 162.094 73.418 162.094 72.592V70.758C162.094 70.324 162.122 70.086 162.388 69.68C162.682 69.232 163.06 68.882 163.676 68.882C164.25 68.882 164.586 69.162 164.782 69.596C164.964 70.002 164.936 70.352 164.936 70.744V72.592C164.936 73.39 164.936 73.81 164.824 74.034C164.712 74.258 164.432 74.258 164.082 74.3C163.984 74.3 163.956 74.328 163.956 74.454C163.956 74.566 163.97 74.608 164.082 74.608C164.544 74.594 165.09 74.566 165.552 74.566C165.944 74.566 166.49 74.594 166.952 74.608C167.05 74.608 167.064 74.566 167.064 74.454C167.064 74.328 167.05 74.314 166.966 74.3C166.574 74.258 166.266 74.244 166.14 74.034C166.042 73.824 166.042 73.418 166.042 72.592V70.758C166.042 70.324 166.07 70.072 166.35 69.68C166.63 69.232 167.05 68.882 167.666 68.882C168.254 68.882 168.576 69.176 168.744 69.596C168.926 70.002 168.898 70.352 168.898 70.744V72.592C168.898 73.39 168.912 73.81 168.786 74.034C168.66 74.258 168.408 74.258 168.044 74.3C167.946 74.3 167.918 74.328 167.918 74.454C167.918 74.58 167.946 74.608 168.044 74.608C168.548 74.594 169.08 74.566 169.528 74.566C169.962 74.566 170.508 74.594 170.928 74.608C171.026 74.608 171.04 74.566 171.04 74.454C171.04 74.328 171.012 74.314 170.928 74.3C170.592 74.258 170.242 74.244 170.13 74.034C170.032 73.838 170.046 73.418 170.046 72.592V71.682C170.046 71.332 170.06 70.646 170.06 70.142C170.06 68.378 168.576 68.182 168.142 68.182C167.204 68.182 166.518 68.686 165.958 69.568C165.692 68.546 164.866 68.182 164.124 68.182C163.312 68.182 162.598 68.658 162.094 69.498C162.094 69.134 162.108 68.728 162.122 68.35C162.122 68.28 162.052 68.224 161.968 68.224C161.352 68.448 160.526 68.7 160.022 68.812C159.882 68.854 159.854 68.868 159.854 68.994C159.868 69.204 159.91 69.19 160.05 69.176L160.372 69.148ZM176.622 70.212C176.636 69.148 176.608 68.182 174.704 68.182C173.164 68.182 172.114 69.176 172.114 69.82C172.114 70.086 172.24 70.226 172.548 70.226C173.108 70.226 173.514 69.974 173.514 69.596C173.514 69.26 173.57 69.036 173.752 68.882C174.004 68.63 174.284 68.56 174.606 68.56C175.208 68.56 175.488 68.994 175.488 70.002V70.394C175.488 70.59 175.348 70.8 175.166 70.94C174.956 71.108 174.648 71.234 174.074 71.416C173.234 71.682 172.758 71.808 172.394 72.172C172.072 72.494 171.918 72.802 171.918 73.39C171.918 74.02 172.324 74.832 173.584 74.832C174.536 74.832 175.054 74.51 175.558 74.048C175.712 74.482 176.09 74.762 176.594 74.762C177.056 74.762 177.406 74.608 177.658 74.426C177.742 74.37 177.756 74.328 177.686 74.216C177.63 74.118 177.56 74.118 177.504 74.146C177.364 74.23 177.266 74.272 177.126 74.272C176.79 74.272 176.58 73.936 176.594 73.068L176.622 70.212ZM175.474 73.11C175.474 73.754 174.928 74.3 174.116 74.3C173.668 74.3 173.15 73.894 173.15 73.194C173.15 72.536 173.472 72.074 174.27 71.794C175.082 71.486 175.334 71.36 175.488 71.15L175.474 73.11ZM178.803 69.148C179.041 69.134 179.181 69.204 179.279 69.456C179.391 69.708 179.391 70.086 179.391 70.59V72.592C179.391 73.39 179.391 73.796 179.251 74.034C179.153 74.258 178.887 74.258 178.509 74.3C178.425 74.314 178.397 74.328 178.397 74.454C178.397 74.58 178.425 74.608 178.509 74.608C178.971 74.594 179.573 74.566 180.007 74.566C180.427 74.566 180.987 74.594 181.449 74.608C181.519 74.608 181.547 74.58 181.547 74.454C181.547 74.328 181.519 74.3 181.449 74.3C181.029 74.258 180.735 74.258 180.623 74.034C180.511 73.838 180.525 73.418 180.525 72.592V70.94C180.525 70.422 180.665 70.058 180.917 69.736C181.169 69.4 181.379 69.26 181.589 69.26C181.855 69.26 182.065 69.526 182.359 69.526C182.653 69.526 183.073 69.078 183.073 68.588C183.073 68.35 182.723 68.182 182.303 68.182C181.547 68.182 180.959 68.952 180.525 69.68C180.525 69.148 180.539 68.742 180.553 68.336C180.553 68.266 180.469 68.224 180.385 68.224C179.797 68.462 178.929 68.714 178.425 68.812C178.285 68.854 178.257 68.868 178.257 69.022C178.271 69.19 178.327 69.19 178.453 69.176L178.803 69.148ZM188.476 70.338C188.784 69.582 188.966 69.176 189.204 68.966C189.414 68.77 189.582 68.742 189.834 68.714C189.932 68.7 189.96 68.686 189.96 68.56C189.96 68.406 189.932 68.392 189.834 68.392C189.47 68.42 189.078 68.434 188.686 68.434C188.308 68.434 187.818 68.406 187.426 68.392C187.342 68.392 187.314 68.42 187.314 68.56C187.314 68.686 187.342 68.714 187.426 68.714C187.804 68.742 188.028 68.77 188.126 68.98C188.168 69.064 188.196 69.162 188.196 69.302C188.196 69.54 188.126 69.862 187.944 70.338L187.272 72.144C187.076 72.662 186.978 72.928 186.866 73.264C186.74 72.886 186.642 72.648 186.46 72.172L185.732 70.352C185.438 69.624 185.27 69.148 185.368 68.966C185.466 68.77 185.802 68.742 186.138 68.714C186.222 68.714 186.25 68.7 186.25 68.56C186.25 68.42 186.222 68.392 186.138 68.392C185.662 68.42 185.032 68.434 184.598 68.434C184.164 68.434 183.576 68.406 183.114 68.392C183.03 68.392 183.002 68.42 183.002 68.56C183.002 68.7 183.03 68.714 183.114 68.714C183.478 68.742 183.702 68.784 183.856 68.98C184.052 69.218 184.192 69.568 184.528 70.352L185.564 72.942C185.872 73.684 186.054 74.132 186.264 74.664C185.774 75.798 185.48 76.176 185.228 76.498C185.06 76.722 184.864 76.82 184.724 76.82C184.444 76.82 184.318 76.666 184.038 76.666C183.632 76.666 183.254 77.198 183.254 77.576C183.254 77.772 183.366 77.926 183.786 77.926C184.976 77.926 185.83 76.778 186.586 75.084C186.866 74.468 187.146 73.754 187.482 72.914L188.476 70.338ZM198.434 69.988C199.806 70.688 200.478 71.276 200.478 72.41C200.478 73.488 199.708 74.384 198.378 74.384C197.244 74.384 196.18 73.432 195.606 72.004C195.578 71.934 195.536 71.892 195.382 71.92C195.256 71.948 195.242 72.018 195.242 72.088C195.34 72.774 195.494 73.586 195.704 74.342C196.488 74.622 197.384 74.832 198.224 74.832C200.674 74.832 201.738 73.488 201.738 71.864C201.738 70.226 200.772 69.526 199.134 68.756L198.42 68.42C197.188 67.832 196.852 67.216 196.852 66.53C196.852 65.536 197.524 64.794 198.602 64.794C199.652 64.794 200.52 65.592 200.982 66.894C200.996 66.964 201.024 67.006 201.15 66.992C201.29 66.964 201.318 66.922 201.318 66.852C201.262 66.124 201.178 65.312 201.164 64.612C200.758 64.682 200.226 64.654 199.806 64.542C199.428 64.416 199.008 64.346 198.574 64.346C196.754 64.346 195.606 65.494 195.606 66.838C195.606 68.252 196.376 68.938 197.776 69.652L198.434 69.988ZM203.944 72.564C203.944 73.362 203.958 73.796 203.832 74.034C203.706 74.216 203.426 74.23 203.076 74.272C202.978 74.272 202.95 74.314 202.95 74.426C202.95 74.58 202.978 74.608 203.076 74.608C203.51 74.594 204.112 74.566 204.546 74.566C204.966 74.566 205.512 74.594 205.96 74.608C206.044 74.608 206.072 74.58 206.072 74.426C206.072 74.314 206.044 74.286 205.96 74.272C205.568 74.23 205.26 74.23 205.148 74.034C205.05 73.81 205.05 73.39 205.05 72.564V70.786C205.05 70.128 205.064 69.358 205.106 68.35C205.106 68.266 205.022 68.224 204.938 68.224C204.364 68.434 203.454 68.7 202.964 68.826C202.824 68.854 202.796 68.868 202.796 69.008C202.81 69.204 202.852 69.204 202.992 69.19L203.342 69.162C203.608 69.134 203.762 69.218 203.846 69.442C203.93 69.708 203.944 70.072 203.944 70.604V72.564ZM204.406 64.36C203.986 64.36 203.566 64.766 203.566 65.2C203.566 65.648 203.986 66.04 204.406 66.04C204.826 66.04 205.246 65.648 205.246 65.2C205.246 64.766 204.826 64.36 204.406 64.36ZM207.644 68.952L207.616 70.898C207.616 71.556 207.588 72.186 207.588 72.83C207.588 73.614 207.742 74.034 208.022 74.356C208.372 74.72 208.834 74.832 209.38 74.832C210.01 74.832 210.514 74.51 210.906 74.09C210.99 74.006 210.962 73.964 210.878 73.852C210.808 73.768 210.724 73.754 210.654 73.81C210.402 74.048 210.08 74.188 209.772 74.188C209.59 74.188 209.268 74.146 209.03 73.824C208.834 73.558 208.75 73.18 208.75 72.41L208.778 68.924C209.296 68.924 210.038 68.938 210.542 68.966C210.612 68.966 210.654 68.924 210.682 68.868L210.808 68.476C210.822 68.406 210.808 68.392 210.738 68.392C210.164 68.406 209.366 68.42 208.806 68.42C208.806 68 208.834 67.44 208.848 67.048C208.848 66.95 208.834 66.908 208.666 66.908C208.512 66.908 208.484 66.95 208.442 67.034C208.316 67.37 208.078 67.762 207.854 68C207.574 68.294 207.154 68.504 206.776 68.574C206.636 68.602 206.622 68.644 206.622 68.784C206.622 68.952 206.65 68.966 206.762 68.966L207.644 68.952ZM213.005 70.94C214.237 70.912 215.693 70.926 217.065 70.968C217.149 70.968 217.205 70.982 217.289 70.898C217.359 70.8 217.359 70.758 217.359 70.66C217.317 69.722 216.533 68.182 214.769 68.182C212.963 68.182 211.703 69.722 211.703 71.556C211.703 73.446 212.949 74.832 214.783 74.832C215.833 74.832 216.589 74.454 217.219 73.488C217.275 73.404 217.289 73.39 217.289 73.348C217.289 73.236 217.107 73.138 217.051 73.138C217.009 73.138 216.967 73.166 216.939 73.208C216.449 73.88 215.917 74.188 215.035 74.188C214.111 74.188 212.963 73.264 212.963 71.486C212.963 71.234 212.991 71.052 213.005 70.94ZM213.089 70.436C213.341 69.33 213.943 68.588 214.769 68.588C215.637 68.588 216.015 69.428 216.085 70.17C216.099 70.296 216.057 70.394 215.945 70.394C214.923 70.464 214.111 70.464 213.089 70.436ZM228.315 64.346C225.319 64.346 223.135 66.558 223.135 69.582C223.135 72.606 225.319 74.832 228.315 74.832C231.311 74.832 233.509 72.606 233.509 69.554C233.509 66.502 231.311 64.346 228.315 64.346ZM228.315 64.822C230.443 64.822 231.955 66.698 231.955 69.596C231.955 72.466 230.471 74.342 228.315 74.342C226.145 74.342 224.675 72.466 224.675 69.554C224.675 66.726 226.173 64.822 228.315 64.822ZM236.824 68.952C237.3 68.952 237.874 68.952 238.392 68.98C238.434 68.98 238.476 68.952 238.504 68.896L238.644 68.476C238.644 68.42 238.616 68.392 238.546 68.392C237.986 68.42 237.314 68.434 236.838 68.434C236.838 67.832 236.838 66.88 236.936 66.194C237.062 65.228 237.356 64.766 237.776 64.766C238 64.766 238.182 64.864 238.392 65.06C238.602 65.228 238.742 65.396 238.98 65.396C239.274 65.396 239.54 64.948 239.54 64.444C239.54 64.108 239.26 64.024 238.784 64.024C237.958 64.024 237.23 64.36 236.698 64.962C236.124 65.606 235.648 66.502 235.648 67.72C235.648 67.916 235.648 68.224 235.662 68.448C235.34 68.448 235.032 68.448 234.654 68.434C234.584 68.434 234.542 68.462 234.514 68.518L234.416 68.938C234.416 68.98 234.444 69.008 234.5 69.008C234.962 68.98 235.326 68.966 235.662 68.966C235.676 69.428 235.676 70.002 235.676 70.59V72.564C235.676 73.39 235.676 73.782 235.55 74.006C235.438 74.216 235.06 74.244 234.71 74.272C234.612 74.286 234.584 74.314 234.584 74.454C234.584 74.566 234.612 74.608 234.71 74.608C235.186 74.594 235.83 74.566 236.278 74.566C236.698 74.566 237.342 74.594 237.832 74.608C237.916 74.608 237.958 74.566 237.958 74.454C237.958 74.314 237.916 74.286 237.832 74.272C237.44 74.23 237.034 74.202 236.936 74.006C236.81 73.81 236.824 73.418 236.824 72.564V68.952ZM85.2718 86.09C85.2718 85.236 85.2578 84.62 85.4398 84.298C85.6078 84.032 85.9718 84.018 86.4618 83.962C86.5458 83.948 86.5878 83.934 86.5878 83.794C86.5878 83.612 86.5598 83.57 86.4618 83.57C85.9018 83.612 85.1878 83.654 84.5998 83.654C84.0538 83.654 83.3118 83.612 82.7238 83.57C82.6398 83.57 82.6118 83.612 82.6118 83.78C82.6118 83.934 82.6398 83.948 82.7238 83.962C83.2558 84.018 83.6618 84.032 83.8158 84.298C83.9838 84.606 83.9838 84.76 83.9838 86.09V91.06C83.9838 91.998 83.9978 92.6 83.8018 92.908C83.6338 93.188 83.2698 93.188 82.7938 93.244C82.7098 93.258 82.6818 93.286 82.6818 93.426C82.6818 93.566 82.7098 93.608 82.7938 93.608C83.3398 93.58 84.0538 93.552 84.5998 93.552C85.1878 93.552 85.9158 93.58 86.5178 93.608C86.6298 93.608 86.6578 93.566 86.6578 93.426C86.6578 93.286 86.6298 93.258 86.5318 93.244C85.9998 93.188 85.5798 93.174 85.4258 92.908C85.2578 92.642 85.2718 92.446 85.2718 91.06V86.09ZM88.1437 88.148C88.3817 88.12 88.5217 88.204 88.6057 88.442C88.7177 88.694 88.7177 89.086 88.7177 89.59V91.592C88.7177 92.39 88.7177 92.81 88.6057 93.034C88.4797 93.258 88.2137 93.258 87.8777 93.3C87.7937 93.314 87.7657 93.328 87.7657 93.454C87.7657 93.58 87.7937 93.608 87.8777 93.608C88.3397 93.594 88.8717 93.566 89.3337 93.566C89.7537 93.566 90.2577 93.594 90.7057 93.608C90.7897 93.608 90.8177 93.58 90.8177 93.454C90.8177 93.328 90.7897 93.314 90.7057 93.3C90.2997 93.258 90.0337 93.258 89.9217 93.034C89.8237 92.838 89.8377 92.418 89.8377 91.592V89.758C89.8377 89.324 89.8657 89.058 90.1317 88.666C90.4257 88.218 90.9297 87.882 91.5037 87.882C92.1337 87.882 92.4697 88.176 92.6657 88.596C92.8617 89.002 92.8197 89.352 92.8197 89.744V91.592C92.8197 92.39 92.8337 92.81 92.6937 93.034C92.5817 93.258 92.3157 93.272 91.9797 93.3C91.8957 93.3 91.8677 93.328 91.8677 93.454C91.8677 93.58 91.8817 93.608 91.9797 93.608C92.4557 93.594 92.9877 93.566 93.4357 93.566C93.8697 93.566 94.3737 93.594 94.8217 93.608C94.9197 93.608 94.9337 93.58 94.9337 93.454C94.9337 93.342 94.9057 93.314 94.8217 93.3C94.4437 93.258 94.1917 93.244 94.0797 93.034C93.9677 92.824 93.9677 92.418 93.9677 91.592V90.682C93.9677 90.332 93.9817 89.646 93.9817 89.142C93.9817 87.392 92.4137 87.182 92.0077 87.182C91.0837 87.182 90.3277 87.672 89.8377 88.484C89.8377 88.12 89.8377 87.714 89.8657 87.336C89.8657 87.266 89.7677 87.224 89.6977 87.224C89.1237 87.462 88.2837 87.7 87.7797 87.812C87.6257 87.854 87.5977 87.882 87.5977 87.98C87.6117 88.19 87.6537 88.19 87.8077 88.176L88.1437 88.148ZM96.5194 87.952L96.4914 89.898C96.4914 90.556 96.4634 91.186 96.4634 91.83C96.4634 92.614 96.6174 93.034 96.8974 93.356C97.2474 93.72 97.7094 93.832 98.2554 93.832C98.8854 93.832 99.3894 93.51 99.7814 93.09C99.8654 93.006 99.8374 92.964 99.7534 92.852C99.6834 92.768 99.5994 92.754 99.5294 92.81C99.2774 93.048 98.9554 93.188 98.6474 93.188C98.4654 93.188 98.1434 93.146 97.9054 92.824C97.7094 92.558 97.6254 92.18 97.6254 91.41L97.6534 87.924C98.1714 87.924 98.9134 87.938 99.4174 87.966C99.4874 87.966 99.5294 87.924 99.5574 87.868L99.6834 87.476C99.6974 87.406 99.6834 87.392 99.6134 87.392C99.0394 87.406 98.2414 87.42 97.6814 87.42C97.6814 87 97.7094 86.44 97.7234 86.048C97.7234 85.95 97.7094 85.908 97.5414 85.908C97.3874 85.908 97.3594 85.95 97.3174 86.034C97.1914 86.37 96.9534 86.762 96.7294 87C96.4494 87.294 96.0294 87.504 95.6514 87.574C95.5114 87.602 95.4974 87.644 95.4974 87.784C95.4974 87.952 95.5254 87.966 95.6374 87.966L96.5194 87.952ZM101.88 89.94C103.112 89.912 104.568 89.926 105.94 89.968C106.024 89.968 106.08 89.982 106.164 89.898C106.234 89.8 106.234 89.758 106.234 89.66C106.192 88.722 105.408 87.182 103.644 87.182C101.838 87.182 100.578 88.722 100.578 90.556C100.578 92.446 101.824 93.832 103.658 93.832C104.708 93.832 105.464 93.454 106.094 92.488C106.15 92.404 106.164 92.39 106.164 92.348C106.164 92.236 105.982 92.138 105.926 92.138C105.884 92.138 105.842 92.166 105.814 92.208C105.324 92.88 104.792 93.188 103.91 93.188C102.986 93.188 101.838 92.264 101.838 90.486C101.838 90.234 101.866 90.052 101.88 89.94ZM101.964 89.436C102.216 88.33 102.818 87.588 103.644 87.588C104.512 87.588 104.89 88.428 104.96 89.17C104.974 89.296 104.932 89.394 104.82 89.394C103.798 89.464 102.986 89.464 101.964 89.436ZM107.599 88.148C107.837 88.134 107.977 88.204 108.075 88.456C108.187 88.708 108.187 89.086 108.187 89.59V91.592C108.187 92.39 108.187 92.796 108.047 93.034C107.949 93.258 107.683 93.258 107.305 93.3C107.221 93.314 107.193 93.328 107.193 93.454C107.193 93.58 107.221 93.608 107.305 93.608C107.767 93.594 108.369 93.566 108.803 93.566C109.223 93.566 109.783 93.594 110.245 93.608C110.315 93.608 110.343 93.58 110.343 93.454C110.343 93.328 110.315 93.3 110.245 93.3C109.825 93.258 109.531 93.258 109.419 93.034C109.307 92.838 109.321 92.418 109.321 91.592V89.94C109.321 89.422 109.461 89.058 109.713 88.736C109.965 88.4 110.175 88.26 110.385 88.26C110.651 88.26 110.861 88.526 111.155 88.526C111.449 88.526 111.869 88.078 111.869 87.588C111.869 87.35 111.519 87.182 111.099 87.182C110.343 87.182 109.755 87.952 109.321 88.68C109.321 88.148 109.335 87.742 109.349 87.336C109.349 87.266 109.265 87.224 109.181 87.224C108.593 87.462 107.725 87.714 107.221 87.812C107.081 87.854 107.053 87.868 107.053 88.022C107.067 88.19 107.123 88.19 107.249 88.176L107.599 88.148ZM112.862 88.148C113.1 88.12 113.24 88.204 113.324 88.442C113.436 88.694 113.436 89.086 113.436 89.59V91.592C113.436 92.39 113.436 92.81 113.324 93.034C113.198 93.258 112.932 93.258 112.596 93.3C112.512 93.314 112.484 93.328 112.484 93.454C112.484 93.58 112.512 93.608 112.596 93.608C113.058 93.594 113.59 93.566 114.052 93.566C114.472 93.566 114.976 93.594 115.424 93.608C115.508 93.608 115.536 93.58 115.536 93.454C115.536 93.328 115.508 93.314 115.424 93.3C115.018 93.258 114.752 93.258 114.64 93.034C114.542 92.838 114.556 92.418 114.556 91.592V89.758C114.556 89.324 114.584 89.058 114.85 88.666C115.144 88.218 115.648 87.882 116.222 87.882C116.852 87.882 117.188 88.176 117.384 88.596C117.58 89.002 117.538 89.352 117.538 89.744V91.592C117.538 92.39 117.552 92.81 117.412 93.034C117.3 93.258 117.034 93.272 116.698 93.3C116.614 93.3 116.586 93.328 116.586 93.454C116.586 93.58 116.6 93.608 116.698 93.608C117.174 93.594 117.706 93.566 118.154 93.566C118.588 93.566 119.092 93.594 119.54 93.608C119.638 93.608 119.652 93.58 119.652 93.454C119.652 93.342 119.624 93.314 119.54 93.3C119.162 93.258 118.91 93.244 118.798 93.034C118.686 92.824 118.686 92.418 118.686 91.592V90.682C118.686 90.332 118.7 89.646 118.7 89.142C118.7 87.392 117.132 87.182 116.726 87.182C115.802 87.182 115.046 87.672 114.556 88.484C114.556 88.12 114.556 87.714 114.584 87.336C114.584 87.266 114.486 87.224 114.416 87.224C113.842 87.462 113.002 87.7 112.498 87.812C112.344 87.854 112.316 87.882 112.316 87.98C112.33 88.19 112.372 88.19 112.526 88.176L112.862 88.148ZM125.27 89.212C125.284 88.148 125.256 87.182 123.352 87.182C121.812 87.182 120.762 88.176 120.762 88.82C120.762 89.086 120.888 89.226 121.196 89.226C121.756 89.226 122.162 88.974 122.162 88.596C122.162 88.26 122.218 88.036 122.4 87.882C122.652 87.63 122.932 87.56 123.254 87.56C123.856 87.56 124.136 87.994 124.136 89.002V89.394C124.136 89.59 123.996 89.8 123.814 89.94C123.604 90.108 123.296 90.234 122.722 90.416C121.882 90.682 121.406 90.808 121.042 91.172C120.72 91.494 120.566 91.802 120.566 92.39C120.566 93.02 120.972 93.832 122.232 93.832C123.184 93.832 123.702 93.51 124.206 93.048C124.36 93.482 124.738 93.762 125.242 93.762C125.704 93.762 126.054 93.608 126.306 93.426C126.39 93.37 126.404 93.328 126.334 93.216C126.278 93.118 126.208 93.118 126.152 93.146C126.012 93.23 125.914 93.272 125.774 93.272C125.438 93.272 125.228 92.936 125.242 92.068L125.27 89.212ZM124.122 92.11C124.122 92.754 123.576 93.3 122.764 93.3C122.316 93.3 121.798 92.894 121.798 92.194C121.798 91.536 122.12 91.074 122.918 90.794C123.73 90.486 123.982 90.36 124.136 90.15L124.122 92.11ZM127.787 87.952L127.759 89.898C127.759 90.556 127.731 91.186 127.731 91.83C127.731 92.614 127.885 93.034 128.165 93.356C128.515 93.72 128.977 93.832 129.523 93.832C130.153 93.832 130.657 93.51 131.049 93.09C131.133 93.006 131.105 92.964 131.021 92.852C130.951 92.768 130.867 92.754 130.797 92.81C130.545 93.048 130.223 93.188 129.915 93.188C129.733 93.188 129.411 93.146 129.173 92.824C128.977 92.558 128.893 92.18 128.893 91.41L128.921 87.924C129.439 87.924 130.181 87.938 130.685 87.966C130.755 87.966 130.797 87.924 130.825 87.868L130.951 87.476C130.965 87.406 130.951 87.392 130.881 87.392C130.307 87.406 129.509 87.42 128.949 87.42C128.949 87 128.977 86.44 128.991 86.048C128.991 85.95 128.977 85.908 128.809 85.908C128.655 85.908 128.627 85.95 128.585 86.034C128.459 86.37 128.221 86.762 127.997 87C127.717 87.294 127.297 87.504 126.919 87.574C126.779 87.602 126.765 87.644 126.765 87.784C126.765 87.952 126.793 87.966 126.905 87.966L127.787 87.952ZM132.727 91.564C132.727 92.362 132.741 92.796 132.615 93.034C132.489 93.216 132.209 93.23 131.859 93.272C131.761 93.272 131.733 93.314 131.733 93.426C131.733 93.58 131.761 93.608 131.859 93.608C132.293 93.594 132.895 93.566 133.329 93.566C133.749 93.566 134.295 93.594 134.743 93.608C134.827 93.608 134.855 93.58 134.855 93.426C134.855 93.314 134.827 93.286 134.743 93.272C134.351 93.23 134.043 93.23 133.931 93.034C133.833 92.81 133.833 92.39 133.833 91.564V89.786C133.833 89.128 133.847 88.358 133.889 87.35C133.889 87.266 133.805 87.224 133.721 87.224C133.147 87.434 132.237 87.7 131.747 87.826C131.607 87.854 131.579 87.868 131.579 88.008C131.593 88.204 131.635 88.204 131.775 88.19L132.125 88.162C132.391 88.134 132.545 88.218 132.629 88.442C132.713 88.708 132.727 89.072 132.727 89.604V91.564ZM133.189 83.36C132.769 83.36 132.349 83.766 132.349 84.2C132.349 84.648 132.769 85.04 133.189 85.04C133.609 85.04 134.029 84.648 134.029 84.2C134.029 83.766 133.609 83.36 133.189 83.36ZM138.836 87.182C137.03 87.182 135.756 88.722 135.756 90.542C135.756 92.418 137.03 93.832 138.836 93.832C140.684 93.832 141.916 92.32 141.916 90.486C141.916 88.582 140.628 87.182 138.836 87.182ZM138.836 87.588C140.068 87.588 140.614 88.792 140.614 90.514C140.614 92.124 140.026 93.426 138.836 93.426C137.618 93.426 137.072 92.222 137.072 90.514C137.072 88.876 137.646 87.588 138.836 87.588ZM143.46 88.148C143.698 88.12 143.838 88.204 143.922 88.442C144.034 88.694 144.034 89.086 144.034 89.59V91.592C144.034 92.39 144.034 92.81 143.922 93.034C143.796 93.258 143.53 93.258 143.194 93.3C143.11 93.314 143.082 93.328 143.082 93.454C143.082 93.58 143.11 93.608 143.194 93.608C143.656 93.594 144.188 93.566 144.65 93.566C145.07 93.566 145.574 93.594 146.022 93.608C146.106 93.608 146.134 93.58 146.134 93.454C146.134 93.328 146.106 93.314 146.022 93.3C145.616 93.258 145.35 93.258 145.238 93.034C145.14 92.838 145.154 92.418 145.154 91.592V89.758C145.154 89.324 145.182 89.058 145.448 88.666C145.742 88.218 146.246 87.882 146.82 87.882C147.45 87.882 147.786 88.176 147.982 88.596C148.178 89.002 148.136 89.352 148.136 89.744V91.592C148.136 92.39 148.15 92.81 148.01 93.034C147.898 93.258 147.632 93.272 147.296 93.3C147.212 93.3 147.184 93.328 147.184 93.454C147.184 93.58 147.198 93.608 147.296 93.608C147.772 93.594 148.304 93.566 148.752 93.566C149.186 93.566 149.69 93.594 150.138 93.608C150.236 93.608 150.25 93.58 150.25 93.454C150.25 93.342 150.222 93.314 150.138 93.3C149.76 93.258 149.508 93.244 149.396 93.034C149.284 92.824 149.284 92.418 149.284 91.592V90.682C149.284 90.332 149.298 89.646 149.298 89.142C149.298 87.392 147.73 87.182 147.324 87.182C146.4 87.182 145.644 87.672 145.154 88.484C145.154 88.12 145.154 87.714 145.182 87.336C145.182 87.266 145.084 87.224 145.014 87.224C144.44 87.462 143.6 87.7 143.096 87.812C142.942 87.854 142.914 87.882 142.914 87.98C142.928 88.19 142.97 88.19 143.124 88.176L143.46 88.148ZM155.868 89.212C155.882 88.148 155.854 87.182 153.95 87.182C152.41 87.182 151.36 88.176 151.36 88.82C151.36 89.086 151.486 89.226 151.794 89.226C152.354 89.226 152.76 88.974 152.76 88.596C152.76 88.26 152.816 88.036 152.998 87.882C153.25 87.63 153.53 87.56 153.852 87.56C154.454 87.56 154.734 87.994 154.734 89.002V89.394C154.734 89.59 154.594 89.8 154.412 89.94C154.202 90.108 153.894 90.234 153.32 90.416C152.48 90.682 152.004 90.808 151.64 91.172C151.318 91.494 151.164 91.802 151.164 92.39C151.164 93.02 151.57 93.832 152.83 93.832C153.782 93.832 154.3 93.51 154.804 93.048C154.958 93.482 155.336 93.762 155.84 93.762C156.302 93.762 156.652 93.608 156.904 93.426C156.988 93.37 157.002 93.328 156.932 93.216C156.876 93.118 156.806 93.118 156.75 93.146C156.61 93.23 156.512 93.272 156.372 93.272C156.036 93.272 155.826 92.936 155.84 92.068L155.868 89.212ZM154.72 92.11C154.72 92.754 154.174 93.3 153.362 93.3C152.914 93.3 152.396 92.894 152.396 92.194C152.396 91.536 152.718 91.074 153.516 90.794C154.328 90.486 154.58 90.36 154.734 90.15L154.72 92.11ZM158.413 91.564C158.413 92.376 158.413 92.796 158.287 93.02C158.189 93.244 157.937 93.244 157.559 93.286C157.461 93.3 157.433 93.342 157.433 93.454C157.433 93.58 157.461 93.608 157.559 93.608C158.035 93.58 158.595 93.566 159.057 93.566C159.463 93.566 159.981 93.58 160.443 93.608C160.527 93.608 160.555 93.58 160.555 93.454C160.555 93.342 160.541 93.3 160.443 93.286C160.037 93.244 159.771 93.23 159.645 93.02C159.533 92.81 159.547 92.404 159.547 91.564V86.496C159.547 85.152 159.575 84.102 159.603 83.108C159.603 83.038 159.519 83.01 159.449 83.01C158.861 83.22 157.937 83.486 157.433 83.598C157.307 83.626 157.279 83.64 157.279 83.794C157.293 83.962 157.335 83.976 157.461 83.962L157.825 83.934C158.049 83.92 158.231 83.99 158.315 84.228C158.399 84.466 158.413 84.872 158.413 85.376V91.564ZM168.657 88.974C168.979 89.016 169.385 89.03 169.749 89.03C173.095 89.03 174.005 87.672 174.005 86.188C174.005 84.634 173.053 83.556 170.295 83.556C169.385 83.556 168.517 83.64 167.985 83.64C167.411 83.64 166.641 83.612 166.053 83.57C165.955 83.57 165.927 83.612 165.927 83.78C165.927 83.934 165.955 83.948 166.053 83.962C166.571 84.018 167.061 84.032 167.215 84.298C167.355 84.606 167.355 84.76 167.355 86.09V91.06C167.355 91.984 167.355 92.586 167.201 92.894C167.033 93.188 166.669 93.202 166.165 93.244C166.081 93.258 166.053 93.272 166.053 93.426C166.053 93.594 166.067 93.608 166.165 93.608C166.711 93.566 167.453 93.552 168.041 93.552C168.601 93.552 169.329 93.566 169.931 93.608C170.043 93.608 170.071 93.566 170.071 93.426C170.071 93.286 170.043 93.258 169.931 93.244C169.399 93.188 168.951 93.174 168.797 92.894C168.657 92.642 168.657 92.446 168.657 91.06V88.974ZM168.657 86.076C168.657 85.32 168.643 84.62 168.853 84.326C169.035 84.06 169.581 84.032 170.001 84.032C171.611 84.032 172.563 84.788 172.563 86.244C172.563 87.518 171.793 88.554 169.693 88.554C169.301 88.554 168.965 88.526 168.657 88.47V86.076ZM177.142 86.468C177.142 85.138 177.17 84.158 177.212 83.122C177.212 83.066 177.142 83.024 177.058 83.024C176.456 83.234 175.588 83.5 175.084 83.598C174.93 83.626 174.916 83.654 174.916 83.78C174.93 83.976 174.958 83.976 175.098 83.962L175.476 83.934C175.714 83.92 175.84 83.99 175.924 84.228C176.008 84.48 176.022 84.886 176.022 85.376V91.592C176.022 92.376 176.022 92.796 175.896 93.034C175.784 93.244 175.532 93.244 175.154 93.286C175.07 93.3 175.042 93.342 175.042 93.454C175.042 93.58 175.07 93.608 175.154 93.608C175.63 93.594 176.204 93.566 176.666 93.566C177.086 93.566 177.562 93.594 178.024 93.608C178.122 93.608 178.15 93.566 178.15 93.454C178.15 93.328 178.122 93.3 178.024 93.286C177.604 93.244 177.31 93.216 177.226 93.034C177.128 92.81 177.142 92.404 177.142 91.592V89.758C177.142 89.31 177.184 89.058 177.436 88.666C177.744 88.218 178.234 87.882 178.822 87.882C179.452 87.882 179.802 88.176 179.998 88.596C180.166 89.016 180.138 89.338 180.138 89.744V91.592C180.138 92.376 180.152 92.796 180.026 93.034C179.928 93.244 179.662 93.244 179.298 93.286C179.186 93.3 179.158 93.328 179.158 93.454C179.158 93.58 179.186 93.608 179.298 93.608C179.774 93.594 180.264 93.566 180.74 93.566C181.146 93.566 181.692 93.594 182.14 93.608C182.252 93.608 182.28 93.58 182.28 93.454C182.28 93.342 182.238 93.3 182.154 93.286C181.776 93.244 181.482 93.244 181.384 93.034C181.272 92.81 181.286 92.404 181.286 91.592V90.682C181.286 90.318 181.3 89.898 181.3 89.128C181.3 87.35 179.774 87.182 179.298 87.182C178.388 87.182 177.646 87.658 177.142 88.47V86.468ZM186.236 87.182C184.43 87.182 183.156 88.722 183.156 90.542C183.156 92.418 184.43 93.832 186.236 93.832C188.084 93.832 189.316 92.32 189.316 90.486C189.316 88.582 188.028 87.182 186.236 87.182ZM186.236 87.588C187.468 87.588 188.014 88.792 188.014 90.514C188.014 92.124 187.426 93.426 186.236 93.426C185.018 93.426 184.472 92.222 184.472 90.514C184.472 88.876 185.046 87.588 186.236 87.588ZM191.225 87.952L191.197 89.898C191.197 90.556 191.169 91.186 191.169 91.83C191.169 92.614 191.323 93.034 191.603 93.356C191.953 93.72 192.415 93.832 192.961 93.832C193.591 93.832 194.095 93.51 194.487 93.09C194.571 93.006 194.543 92.964 194.459 92.852C194.389 92.768 194.305 92.754 194.235 92.81C193.983 93.048 193.661 93.188 193.353 93.188C193.171 93.188 192.849 93.146 192.611 92.824C192.415 92.558 192.331 92.18 192.331 91.41L192.359 87.924C192.877 87.924 193.619 87.938 194.123 87.966C194.193 87.966 194.235 87.924 194.263 87.868L194.389 87.476C194.403 87.406 194.389 87.392 194.319 87.392C193.745 87.406 192.947 87.42 192.387 87.42C192.387 87 192.415 86.44 192.429 86.048C192.429 85.95 192.415 85.908 192.247 85.908C192.093 85.908 192.065 85.95 192.023 86.034C191.897 86.37 191.659 86.762 191.435 87C191.155 87.294 190.735 87.504 190.357 87.574C190.217 87.602 190.203 87.644 190.203 87.784C190.203 87.952 190.231 87.966 190.343 87.966L191.225 87.952ZM198.363 87.182C196.557 87.182 195.283 88.722 195.283 90.542C195.283 92.418 196.557 93.832 198.363 93.832C200.211 93.832 201.443 92.32 201.443 90.486C201.443 88.582 200.155 87.182 198.363 87.182ZM198.363 87.588C199.595 87.588 200.141 88.792 200.141 90.514C200.141 92.124 199.553 93.426 198.363 93.426C197.145 93.426 196.599 92.222 196.599 90.514C196.599 88.876 197.173 87.588 198.363 87.588ZM215.798 83.724C215.182 83.808 214.776 83.738 214.244 83.57C213.726 83.444 213.18 83.36 212.536 83.36C209.568 83.36 207.426 85.544 207.426 88.582C207.426 91.69 209.554 93.832 212.494 93.832C214.51 93.832 215.714 92.782 216.512 91.34C216.568 91.228 216.54 91.144 216.414 91.088C216.246 91.004 216.19 91.032 216.134 91.102C215.322 92.39 214.286 93.034 212.69 93.034C210.534 93.034 208.98 91.088 208.98 88.554C208.98 85.698 210.506 83.836 212.592 83.836C213.222 83.836 213.936 84.046 214.468 84.438C214.972 84.844 215.336 85.404 215.658 86.118C215.714 86.216 215.756 86.244 215.882 86.216C215.994 86.188 216.036 86.146 216.022 86.048C215.938 85.32 215.854 84.452 215.798 83.724ZM220.47 87.182C218.664 87.182 217.39 88.722 217.39 90.542C217.39 92.418 218.664 93.832 220.47 93.832C222.318 93.832 223.55 92.32 223.55 90.486C223.55 88.582 222.262 87.182 220.47 87.182ZM220.47 87.588C221.702 87.588 222.248 88.792 222.248 90.514C222.248 92.124 221.66 93.426 220.47 93.426C219.252 93.426 218.706 92.222 218.706 90.514C218.706 88.876 219.28 87.588 220.47 87.588ZM225.095 88.148C225.361 88.12 225.501 88.204 225.585 88.442C225.683 88.694 225.683 89.086 225.683 89.59V91.592C225.683 92.39 225.711 92.81 225.571 93.034C225.459 93.258 225.207 93.258 224.843 93.3C224.745 93.314 224.717 93.342 224.717 93.454C224.717 93.58 224.745 93.608 224.843 93.608C225.305 93.594 225.823 93.566 226.271 93.566C226.705 93.566 227.251 93.594 227.685 93.608C227.769 93.608 227.797 93.58 227.797 93.454C227.797 93.342 227.769 93.314 227.685 93.3C227.335 93.258 226.999 93.244 226.901 93.034C226.803 92.824 226.817 92.418 226.817 91.592V89.758C226.817 89.324 226.845 89.086 227.111 88.68C227.405 88.232 227.783 87.882 228.399 87.882C228.973 87.882 229.309 88.162 229.505 88.596C229.687 89.002 229.659 89.352 229.659 89.744V91.592C229.659 92.39 229.659 92.81 229.547 93.034C229.435 93.258 229.155 93.258 228.805 93.3C228.707 93.3 228.679 93.328 228.679 93.454C228.679 93.566 228.693 93.608 228.805 93.608C229.267 93.594 229.813 93.566 230.275 93.566C230.667 93.566 231.213 93.594 231.675 93.608C231.773 93.608 231.787 93.566 231.787 93.454C231.787 93.328 231.773 93.314 231.689 93.3C231.297 93.258 230.989 93.244 230.863 93.034C230.765 92.824 230.765 92.418 230.765 91.592V89.758C230.765 89.324 230.793 89.072 231.073 88.68C231.353 88.232 231.773 87.882 232.389 87.882C232.977 87.882 233.299 88.176 233.467 88.596C233.649 89.002 233.621 89.352 233.621 89.744V91.592C233.621 92.39 233.635 92.81 233.509 93.034C233.383 93.258 233.131 93.258 232.767 93.3C232.669 93.3 232.641 93.328 232.641 93.454C232.641 93.58 232.669 93.608 232.767 93.608C233.271 93.594 233.803 93.566 234.251 93.566C234.685 93.566 235.231 93.594 235.651 93.608C235.749 93.608 235.763 93.566 235.763 93.454C235.763 93.328 235.735 93.314 235.651 93.3C235.315 93.258 234.965 93.244 234.853 93.034C234.755 92.838 234.769 92.418 234.769 91.592V90.682C234.769 90.332 234.783 89.646 234.783 89.142C234.783 87.378 233.299 87.182 232.865 87.182C231.927 87.182 231.241 87.686 230.681 88.568C230.415 87.546 229.589 87.182 228.847 87.182C228.035 87.182 227.321 87.658 226.817 88.498C226.817 88.134 226.831 87.728 226.845 87.35C226.845 87.28 226.775 87.224 226.691 87.224C226.075 87.448 225.249 87.7 224.745 87.812C224.605 87.854 224.577 87.868 224.577 87.994C224.591 88.204 224.633 88.19 224.773 88.176L225.095 88.148ZM238.474 93.16C238.88 93.51 239.384 93.832 240.182 93.832C242.086 93.832 243.276 92.432 243.276 90.458C243.276 88.54 242.226 87.168 240.35 87.168C239.776 87.168 238.978 87.49 238.474 88.26C238.474 88.008 238.488 87.728 238.502 87.35C238.502 87.294 238.418 87.224 238.348 87.224C237.732 87.462 236.892 87.686 236.374 87.812C236.248 87.84 236.22 87.868 236.22 87.98C236.234 88.176 236.276 88.19 236.402 88.176L236.752 88.148C236.99 88.134 237.144 88.204 237.228 88.428C237.312 88.708 237.326 89.072 237.326 89.576V94.518C237.326 95.554 237.298 96.1 237.2 96.338C237.102 96.548 236.766 96.562 236.416 96.604C236.332 96.604 236.304 96.618 236.304 96.772C236.304 96.898 236.332 96.926 236.402 96.926C236.878 96.898 237.48 96.884 237.956 96.884C238.362 96.884 238.992 96.898 239.468 96.926C239.552 96.926 239.566 96.898 239.566 96.758C239.566 96.618 239.552 96.604 239.454 96.604C239.048 96.562 238.698 96.534 238.6 96.338C238.488 96.142 238.474 95.554 238.474 94.518V93.16ZM238.474 89.632C238.474 89.17 238.432 88.904 238.726 88.54C239.076 88.092 239.496 87.826 240.098 87.826C241.162 87.826 241.96 88.82 241.96 90.486C241.96 92.194 241.232 93.398 240.098 93.398C239.44 93.398 239.02 93.09 238.712 92.6C238.46 92.222 238.474 91.886 238.474 91.41V89.632ZM245.804 89.94C247.036 89.912 248.492 89.926 249.864 89.968C249.948 89.968 250.004 89.982 250.088 89.898C250.158 89.8 250.158 89.758 250.158 89.66C250.116 88.722 249.332 87.182 247.568 87.182C245.762 87.182 244.502 88.722 244.502 90.556C244.502 92.446 245.748 93.832 247.582 93.832C248.632 93.832 249.388 93.454 250.018 92.488C250.074 92.404 250.088 92.39 250.088 92.348C250.088 92.236 249.906 92.138 249.85 92.138C249.808 92.138 249.766 92.166 249.738 92.208C249.248 92.88 248.716 93.188 247.834 93.188C246.91 93.188 245.762 92.264 245.762 90.486C245.762 90.234 245.79 90.052 245.804 89.94ZM245.888 89.436C246.14 88.33 246.742 87.588 247.568 87.588C248.436 87.588 248.814 88.428 248.884 89.17C248.898 89.296 248.856 89.394 248.744 89.394C247.722 89.464 246.91 89.464 245.888 89.436ZM251.859 87.952L251.831 89.898C251.831 90.556 251.803 91.186 251.803 91.83C251.803 92.614 251.957 93.034 252.237 93.356C252.587 93.72 253.049 93.832 253.595 93.832C254.225 93.832 254.729 93.51 255.121 93.09C255.205 93.006 255.177 92.964 255.093 92.852C255.023 92.768 254.939 92.754 254.869 92.81C254.617 93.048 254.295 93.188 253.987 93.188C253.805 93.188 253.483 93.146 253.245 92.824C253.049 92.558 252.965 92.18 252.965 91.41L252.993 87.924C253.511 87.924 254.253 87.938 254.757 87.966C254.827 87.966 254.869 87.924 254.897 87.868L255.023 87.476C255.037 87.406 255.023 87.392 254.953 87.392C254.379 87.406 253.581 87.42 253.021 87.42C253.021 87 253.049 86.44 253.063 86.048C253.063 85.95 253.049 85.908 252.881 85.908C252.727 85.908 252.699 85.95 252.657 86.034C252.531 86.37 252.293 86.762 252.069 87C251.789 87.294 251.369 87.504 250.991 87.574C250.851 87.602 250.837 87.644 250.837 87.784C250.837 87.952 250.865 87.966 250.977 87.966L251.859 87.952ZM256.8 91.564C256.8 92.362 256.814 92.796 256.688 93.034C256.562 93.216 256.282 93.23 255.932 93.272C255.834 93.272 255.806 93.314 255.806 93.426C255.806 93.58 255.834 93.608 255.932 93.608C256.366 93.594 256.968 93.566 257.402 93.566C257.822 93.566 258.368 93.594 258.816 93.608C258.9 93.608 258.928 93.58 258.928 93.426C258.928 93.314 258.9 93.286 258.816 93.272C258.424 93.23 258.116 93.23 258.004 93.034C257.906 92.81 257.906 92.39 257.906 91.564V89.786C257.906 89.128 257.92 88.358 257.962 87.35C257.962 87.266 257.878 87.224 257.794 87.224C257.22 87.434 256.31 87.7 255.82 87.826C255.68 87.854 255.652 87.868 255.652 88.008C255.666 88.204 255.708 88.204 255.848 88.19L256.198 88.162C256.464 88.134 256.618 88.218 256.702 88.442C256.786 88.708 256.8 89.072 256.8 89.604V91.564ZM257.262 83.36C256.842 83.36 256.422 83.766 256.422 84.2C256.422 84.648 256.842 85.04 257.262 85.04C257.682 85.04 258.102 84.648 258.102 84.2C258.102 83.766 257.682 83.36 257.262 83.36ZM260.5 87.952L260.472 89.898C260.472 90.556 260.444 91.186 260.444 91.83C260.444 92.614 260.598 93.034 260.878 93.356C261.228 93.72 261.69 93.832 262.236 93.832C262.866 93.832 263.37 93.51 263.762 93.09C263.846 93.006 263.818 92.964 263.734 92.852C263.664 92.768 263.58 92.754 263.51 92.81C263.258 93.048 262.936 93.188 262.628 93.188C262.446 93.188 262.124 93.146 261.886 92.824C261.69 92.558 261.606 92.18 261.606 91.41L261.634 87.924C262.152 87.924 262.894 87.938 263.398 87.966C263.468 87.966 263.51 87.924 263.538 87.868L263.664 87.476C263.678 87.406 263.664 87.392 263.594 87.392C263.02 87.406 262.222 87.42 261.662 87.42C261.662 87 261.69 86.44 261.704 86.048C261.704 85.95 261.69 85.908 261.522 85.908C261.368 85.908 261.34 85.95 261.298 86.034C261.172 86.37 260.934 86.762 260.71 87C260.43 87.294 260.01 87.504 259.632 87.574C259.492 87.602 259.478 87.644 259.478 87.784C259.478 87.952 259.506 87.966 259.618 87.966L260.5 87.952ZM265.44 91.564C265.44 92.362 265.454 92.796 265.328 93.034C265.202 93.216 264.922 93.23 264.572 93.272C264.474 93.272 264.446 93.314 264.446 93.426C264.446 93.58 264.474 93.608 264.572 93.608C265.006 93.594 265.608 93.566 266.042 93.566C266.462 93.566 267.008 93.594 267.456 93.608C267.54 93.608 267.568 93.58 267.568 93.426C267.568 93.314 267.54 93.286 267.456 93.272C267.064 93.23 266.756 93.23 266.644 93.034C266.546 92.81 266.546 92.39 266.546 91.564V89.786C266.546 89.128 266.56 88.358 266.602 87.35C266.602 87.266 266.518 87.224 266.434 87.224C265.86 87.434 264.95 87.7 264.46 87.826C264.32 87.854 264.292 87.868 264.292 88.008C264.306 88.204 264.348 88.204 264.488 88.19L264.838 88.162C265.104 88.134 265.258 88.218 265.342 88.442C265.426 88.708 265.44 89.072 265.44 89.604V91.564ZM265.902 83.36C265.482 83.36 265.062 83.766 265.062 84.2C265.062 84.648 265.482 85.04 265.902 85.04C266.322 85.04 266.742 84.648 266.742 84.2C266.742 83.766 266.322 83.36 265.902 83.36ZM271.549 87.182C269.743 87.182 268.469 88.722 268.469 90.542C268.469 92.418 269.743 93.832 271.549 93.832C273.397 93.832 274.629 92.32 274.629 90.486C274.629 88.582 273.341 87.182 271.549 87.182ZM271.549 87.588C272.781 87.588 273.327 88.792 273.327 90.514C273.327 92.124 272.739 93.426 271.549 93.426C270.331 93.426 269.785 92.222 269.785 90.514C269.785 88.876 270.359 87.588 271.549 87.588ZM276.173 88.148C276.411 88.12 276.551 88.204 276.635 88.442C276.747 88.694 276.747 89.086 276.747 89.59V91.592C276.747 92.39 276.747 92.81 276.635 93.034C276.509 93.258 276.243 93.258 275.907 93.3C275.823 93.314 275.795 93.328 275.795 93.454C275.795 93.58 275.823 93.608 275.907 93.608C276.369 93.594 276.901 93.566 277.363 93.566C277.783 93.566 278.287 93.594 278.735 93.608C278.819 93.608 278.847 93.58 278.847 93.454C278.847 93.328 278.819 93.314 278.735 93.3C278.329 93.258 278.063 93.258 277.951 93.034C277.853 92.838 277.867 92.418 277.867 91.592V89.758C277.867 89.324 277.895 89.058 278.161 88.666C278.455 88.218 278.959 87.882 279.533 87.882C280.163 87.882 280.499 88.176 280.695 88.596C280.891 89.002 280.849 89.352 280.849 89.744V91.592C280.849 92.39 280.863 92.81 280.723 93.034C280.611 93.258 280.345 93.272 280.009 93.3C279.925 93.3 279.897 93.328 279.897 93.454C279.897 93.58 279.911 93.608 280.009 93.608C280.485 93.594 281.017 93.566 281.465 93.566C281.899 93.566 282.403 93.594 282.851 93.608C282.949 93.608 282.963 93.58 282.963 93.454C282.963 93.342 282.935 93.314 282.851 93.3C282.473 93.258 282.221 93.244 282.109 93.034C281.997 92.824 281.997 92.418 281.997 91.592V90.682C281.997 90.332 282.011 89.646 282.011 89.142C282.011 87.392 280.443 87.182 280.037 87.182C279.113 87.182 278.357 87.672 277.867 88.484C277.867 88.12 277.867 87.714 277.895 87.336C277.895 87.266 277.797 87.224 277.727 87.224C277.153 87.462 276.313 87.7 275.809 87.812C275.655 87.854 275.627 87.882 275.627 87.98C275.641 88.19 275.683 88.19 275.837 88.176L276.173 88.148ZM286.089 90.92C286.873 91.298 287.293 91.55 287.293 92.194C287.293 92.88 286.873 93.426 286.061 93.426C285.333 93.426 284.605 92.81 284.213 91.942C284.185 91.844 284.157 91.844 284.045 91.858C283.905 91.872 283.891 91.9 283.891 91.97C283.961 92.418 284.087 93.034 284.199 93.44C284.759 93.678 285.305 93.818 286.005 93.818C287.657 93.818 288.329 92.796 288.329 91.844C288.329 90.752 287.713 90.332 286.621 89.842L286.159 89.632C285.319 89.254 285.011 89.03 285.011 88.54C285.011 88.008 285.361 87.546 286.075 87.546C286.817 87.546 287.363 88.148 287.657 88.89C287.699 88.96 287.713 89.002 287.839 88.988C287.965 88.974 287.993 88.946 287.993 88.862C287.937 88.4 287.895 87.784 287.867 87.322C287.531 87.336 287.251 87.336 286.985 87.294C286.747 87.238 286.369 87.168 286.047 87.168C284.661 87.168 284.059 88.036 284.059 88.792C284.059 89.926 284.605 90.206 285.599 90.682L286.089 90.92Z" fill="white"/>
</svg>
